<?xml version="1.0" encoding="utf-8"?>
<svg width="320" height="320" version="1.1" viewBox="0 0 320 320" xmlns="http://www.w3.org/2000/svg">
  <g stroke-width="28"/>
  <path class="fil0" d="M 198.64 144.123 C 208.363 142.088 216.312 149.359 217.63 157.307 C 219.317 167.438 212.866 175.387 204.645 176.696 C 183.076 180.137 176.934 148.728 198.64 144.123 Z M 232.889 152.509 L 240.178 155.562 C 240.707 155.756 240.746 155.805 240.968 155.951 L 243.194 157.841 C 243.262 157.889 243.363 157.938 243.436 157.986 L 252.548 164.336 C 253.527 165.111 253.116 165.014 254.434 164.869 L 255.326 164.724 C 254.861 166.275 254.778 165.45 254.303 166.129 L 258.53 169.717 C 258.515 169.717 258.06 169.377 257.928 169.231 C 258.393 168.602 258.985 168.941 260.473 167.438 L 261.342 167.001 C 260.788 166.032 261.142 166.808 260.915 165.499 C 262.766 164.724 262.528 165.111 262.592 162.543 C 262.698 162.446 262.848 162.397 262.941 162.349 C 263.023 162.3 263.174 162.203 263.27 162.154 C 263.358 162.106 263.497 162.057 263.585 162.01 C 265.96 160.895 263.033 162.397 264.341 161.718 L 261.592 161.767 C 260.241 161.767 261.918 161.67 260.904 162.057 C 260.479 162.203 259.281 162.736 258.549 161.718 C 257.783 159.634 259.349 159.876 259.873 159.683 C 258.205 157.986 258.704 160.991 258.617 158.374 C 258.558 156.532 260.206 156.92 260.488 156.871 C 258.273 155.515 258.918 154.642 255.311 154.593 L 255.684 154.011 C 256.242 152.848 254.022 151.443 253.029 150.812 L 248.675 147.856 C 245.903 145.868 246.393 147.032 246.223 145.432 C 243.29 142.718 230.402 137.289 225.172 135.593 C 207.5 129.777 191.495 126.722 177.879 140.973 C 170.817 148.388 171.365 156.532 169.873 164.287 C 165.243 188.426 154.589 212.224 130.985 218.478 C 119.739 221.482 112.759 219.447 103.501 217.557 C 102.581 218.768 101.126 222.161 100.254 223.519 C 98.849 225.603 97.006 227.057 95.843 228.802 C 99.818 232.341 119.254 233.407 125.992 232.679 C 136.025 231.565 144.75 227.784 151.487 223.179 C 161.879 216.005 169.015 205.488 174.447 194.049 C 176.595 189.492 177.453 185.711 179.134 181.252 C 180.265 181.931 181.404 183.094 182.543 183.918 C 198.576 195.551 221.692 190.219 229.574 173.593 C 233.252 165.79 232.608 160.555 231.314 152.121 L 232.889 152.509 Z M 232.889 152.509 C 234.692 153.867 239.258 156.095 241.492 157.453 C 247.484 161.234 255.675 168.069 260.109 173.4 L 263.687 177.278 C 269.712 175.775 272.625 177.278 271.326 166.857 C 270.357 164.336 262.276 157.163 259.765 155.029 C 256.678 152.412 250.183 147.275 246.223 145.432 C 246.393 147.032 245.903 145.868 248.675 147.856 L 253.029 150.812 C 254.022 151.443 256.242 152.848 255.684 154.011 L 255.311 154.593 C 258.918 154.642 258.273 155.515 260.488 156.871 C 260.206 156.92 258.558 156.532 258.617 158.374 C 258.704 160.991 258.205 157.986 259.873 159.683 C 259.349 159.876 257.783 159.634 258.549 161.718 C 259.286 162.736 260.479 162.203 260.904 162.057 C 261.918 161.67 260.241 161.767 261.592 161.767 L 264.341 161.718 C 263.033 162.397 265.96 160.895 263.585 162.01 C 263.497 162.057 263.358 162.106 263.27 162.154 C 263.174 162.203 263.023 162.3 262.941 162.349 C 262.848 162.397 262.698 162.446 262.592 162.543 C 262.528 165.111 262.766 164.724 260.915 165.499 C 261.137 166.808 260.788 166.032 261.342 167.001 L 260.473 167.438 C 258.985 168.941 258.393 168.602 257.928 169.231 C 258.06 169.377 258.515 169.717 258.53 169.717 L 254.303 166.129 C 254.778 165.45 254.861 166.275 255.326 164.724 L 254.434 164.869 C 253.116 165.014 253.527 165.111 252.548 164.336 L 243.436 157.986 C 243.363 157.938 243.262 157.889 243.194 157.841 L 240.968 155.951 C 240.746 155.805 240.707 155.756 240.178 155.562 L 232.889 152.509 Z" style="stroke-width: 1;"/>
  <path class="fil0" d="M 295.668 197.005 C 296.352 192.788 295.93 135.351 295.915 129.631 C 295.866 104.862 299.391 81.936 274.443 66.813 L 242.704 47.715 C 235.525 43.401 228.871 39.428 221.673 35.017 C 218.648 33.174 202.207 23.142 200.283 22.656 L 209.284 38.846 C 210.131 40.348 211.61 43.208 212.444 44.226 C 215.391 48.007 266.774 75.344 274.462 83.439 C 280.802 90.128 282.697 96.865 282.784 108.885 C 282.862 120.083 282.799 131.425 282.736 142.621 C 282.707 148.147 282.751 153.721 282.756 159.294 C 282.77 178.973 280.797 169.668 289.831 185.954 C 291.717 189.346 293.705 193.951 295.668 197.005 Z" style="stroke-width: 1;"/>
  <path class="fil0" d="M 132.487 149.116 L 132.536 187.359 C 132.536 192.109 132.1 190.85 140.484 190.85 L 147.174 190.85 L 147.222 139.276 L 137.237 139.132 C 131.662 139.132 132.487 136.95 132.487 149.116 Z" style="stroke-width: 1;"/>
  <path class="fil0" d="M 138.013 106.656 C 131.662 107.576 126.282 113.296 127.446 121.052 C 128.366 127.304 134.328 132.684 141.987 131.473 C 148.433 130.454 153.281 124.784 152.215 117.077 C 151.342 110.921 145.331 105.589 138.013 106.656 Z" style="stroke-width: 1;"/>
  <path class="fil1" d="M 87.99 213.339 C 84.791 221.725 72.626 217.217 75.292 208.687 C 76.261 205.681 79.944 203.209 84.161 204.663 C 86.924 205.632 89.494 209.317 87.99 213.339 Z M 232.733 110.921 C 231.217 102.1 244.217 99.676 245.961 108.207 C 247.871 117.61 234.096 118.822 232.733 110.921 Z M 154.347 63.759 C 152.505 54.502 166.068 52.951 167.511 61.094 C 169.107 70.06 155.971 71.902 154.347 63.759 Z M 85.373 95.265 C 87.215 94.053 87.943 92.938 89.93 91.63 C 91.481 90.612 93.226 89.449 95.116 88.286 C 98.896 86.056 102.096 83.972 106.021 81.742 C 108.494 80.337 109.173 80.191 110.481 77.67 C 114.94 69.14 121.774 58.185 126.234 49.896 C 128.173 46.261 130.306 42.335 132.487 38.7 C 137.624 30.17 139.951 24.741 149.355 20.62 C 158.336 16.694 169.533 17.858 176.774 23.044 C 184.476 28.473 186.416 34.095 191.669 43.062 C 193.201 45.68 216.734 86.104 217.14 87.85 C 214.649 86.976 181.224 66.571 178.806 64.971 C 178.863 58.379 177.836 54.453 174.258 50.721 C 166.561 42.724 155.985 42.481 147.997 50.139 C 144.119 53.92 143.296 57.749 143.102 64.583 C 139.805 67.201 119.642 78.785 115.182 81.548 C 105.924 87.365 94.341 92.648 87.7 99.627 C 80.866 106.753 74.516 117.223 74.37 131.618 C 74.177 146.79 74.856 162.349 74.323 177.423 C 72.577 176.308 71.996 173.642 71.026 171.848 L 62.398 154.884 C 57.358 144.948 41.459 117.949 39.617 109.37 C 36.418 94.635 44.948 83.003 56.485 76.508 C 60.217 74.423 63.368 72.144 67.052 70.013 C 72.044 67.055 108.009 45.825 109.366 43.983 L 121.678 22.414 C 120.03 22.753 111.693 28.133 109.415 29.394 C 105.101 31.865 101.175 34.483 96.958 36.906 C 81.205 45.923 63.077 57.846 47.711 66.522 C 29.098 76.992 20.617 99.725 29.341 120.034 C 33.316 129.292 44.804 148.583 49.651 158.665 L 62.882 184.839 C 64.337 187.747 68.797 196.084 69.281 198.314 C 56 214.018 70.202 232.341 86.149 228.463 C 101.563 224.778 105.247 201.077 87.651 194.193 C 87.264 182.318 87.554 170.007 87.603 158.083 C 87.603 141.506 84.743 123.184 94.825 111.164 C 100.836 103.893 119.157 94.247 127.833 89.352 C 131.905 87.025 135.153 84.99 138.982 82.614 C 140.776 81.499 149.015 76.071 150.567 76.847 C 154.443 78.736 157.546 81.452 164.458 79.997 C 167.002 79.464 168.791 78.495 170.74 77.331 C 173.192 75.877 173.954 77.428 176.512 78.979 C 180.511 81.403 219.491 104.33 221.852 106.461 C 221.91 114.46 222.628 120.616 231.26 125.414 C 246.364 133.896 263.886 116.35 254.628 100.452 C 252.756 97.252 250.566 95.168 247.279 93.569 C 242.031 91 240.605 91.921 234.93 92.018 C 232.332 88.14 229.932 83.536 227.44 79.269 L 205.119 40.202 C 200.564 32.398 194.679 20.33 189.014 15.628 C 170.875 0.651 145.234 1.717 130.45 17.955 C 125.119 23.819 105.344 59.687 99.964 69.188 L 88.96 88.673 C 87.797 90.71 86.1 93.327 85.373 95.265 Z" style="stroke-width: 1;"/>
  <path class="fil1" d="M 154.396 259.29 C 152.99 250.129 166.702 249.063 167.546 257.351 C 168.466 266.415 155.558 267.142 154.396 259.29 Z M 233.436 212.952 C 231.352 203.209 245.311 201.853 246.586 210.14 C 248.036 219.495 235.055 220.513 233.436 212.952 Z M 143.344 261.761 C 144.895 264.864 145.089 268.789 150.178 272.377 C 158.859 278.484 169.475 276.788 174.923 269.324 C 178.349 264.621 178.568 262.247 178.563 255.509 C 180.148 254.927 181.888 253.618 183.488 252.698 L 217.781 232.679 C 216.937 235.248 191.718 278.436 188.621 283.864 C 182.3 294.867 173.905 303.834 158.361 302.477 C 149.499 301.701 142.181 296.224 136.171 292.492 L 95.989 268.402 C 90.22 265.01 89.881 265.93 82.368 265.833 C 77.037 265.736 71.801 265.446 66.47 265.349 C 68.215 267.191 75.389 271.068 78.199 272.813 C 82.271 275.334 86.052 277.611 90.075 280.035 L 137.77 308.778 C 146.592 313.916 155.869 317.357 168.234 315.031 C 179.028 313.043 187.229 307.081 192.537 301.168 L 196.54 295.788 C 200.442 289.778 203.652 283.864 207.209 277.611 C 211.828 269.517 216.622 261.422 221.247 253.425 C 225.894 245.428 231.028 237.139 235.269 228.85 C 240.629 228.705 241.904 230.401 247.478 227.687 C 258.699 222.161 260.745 208.008 252.961 199.234 C 248.564 194.339 239.796 191.237 231.866 195.357 C 228.347 197.199 226.563 199.234 224.658 202.433 C 221.992 206.844 222.346 208.928 222.317 214.551 C 220.48 216.248 184.026 237.381 177.497 241.404 C 173.284 244.021 172.882 244.749 170.653 243.391 C 162.81 238.544 153.087 240.531 148.143 245.815 C 145.428 248.723 147.851 248.674 140.484 248.578 C 126.816 248.432 113.147 248.578 99.429 248.529 C 89.105 248.481 69.33 249.353 60.654 246.445 C 51.153 243.245 43.253 235.442 40.296 225.747 C 36.176 212.031 42.041 202.822 47.275 193.709 C 48.197 192.109 54.643 181.397 54.739 180.767 C 55.031 179.119 49.408 167.874 48.244 166.565 C 45.919 168.795 40.393 181.059 38.696 181.882 C 38.793 177.181 39.229 149.31 38.309 146.886 C 38.017 146.111 28.081 126.578 26.481 124.541 C 26.094 124.008 26.142 124.105 25.803 123.766 C 25.415 144.899 25.609 166.565 25.706 187.747 C 25.852 210.48 22.943 226.087 34.48 242.955 C 38.551 248.917 44.368 253.522 51.978 257.206 C 60.459 261.325 69.233 261.374 79.508 261.422 L 143.344 261.761 Z" style="stroke-width: 1;"/>
  <path class="fil1" d="M 263.687 177.278 L 270.88 187.844 C 278.882 201.028 286.308 212.08 280.676 227.93 C 277.812 236.024 270.541 242.761 262.533 245.961 C 253.576 249.499 239.52 248.384 229.21 248.917 C 228.105 249.983 222.128 259.969 221.508 261.955 L 236.767 261.858 L 225.172 268.742 C 209.618 278.241 215.978 271.601 206.472 287.451 C 204.718 290.408 201.31 297 199.628 298.987 C 201.451 298.502 236.218 277.272 238.967 275.673 C 245.676 271.698 252.063 267.869 258.893 263.895 C 265.703 259.871 272.455 256.139 278.567 251.826 C 289.138 244.409 299.473 226.766 294.577 206.796 C 292.599 198.75 288.232 191.189 284.539 185.13 C 282.131 181.203 273.823 168.213 271.326 166.857 C 271.854 174.564 272.314 175.436 263.687 177.278 Z" style="stroke-width: 1;"/>
</svg>