<?xml version="1.0" encoding="utf-8"?>
<svg width="320" height="320" version="1.1" viewBox="0 0 320 320" xmlns="http://www.w3.org/2000/svg">
  <g stroke-width="28"/>
  <path class="fil0" d="M 296.635 197.849 C 297.324 193.624 296.898 135.602 296.886 129.822 C 296.835 104.808 300.394 81.704 275.205 66.415 L 243.161 47.151 C 235.915 42.796 229.195 38.777 221.931 34.312 C 218.875 32.434 202.276 22.321 200.334 21.827 L 209.422 38.184 C 210.275 39.718 211.772 42.564 212.609 43.631 C 215.588 47.423 267.466 75.037 275.228 83.202 C 281.627 89.933 283.538 96.742 283.625 108.892 C 283.707 120.207 283.642 131.634 283.579 142.954 C 283.547 148.551 283.595 154.178 283.598 159.78 C 283.612 179.654 281.624 170.271 290.744 186.691 C 292.646 190.115 294.655 194.772 296.637 197.849 L 296.635 197.849 Z" style="stroke-width: 0.09;"/>
  <path class="fil1" d="M 86.941 214.36 C 83.717 222.835 71.426 218.239 74.16 209.665 C 75.139 206.595 78.819 204.125 83.099 205.603 C 85.87 206.559 88.492 210.28 86.941 214.36 Z M 233.094 110.945 C 231.562 102.054 244.687 99.572 246.449 108.226 C 248.378 117.695 234.47 118.931 233.094 110.945 Z M 153.952 63.341 C 152.088 53.99 165.788 52.428 167.247 60.622 C 168.856 69.671 155.594 71.575 153.952 63.341 Z M 84.319 95.16 C 86.178 93.923 86.927 92.805 88.901 91.486 C 90.498 90.421 92.232 89.245 94.149 88.115 C 97.971 85.864 101.22 83.734 105.161 81.479 C 107.646 80.058 108.328 79.929 109.677 77.358 C 114.188 68.764 121.083 57.694 125.579 49.336 C 127.554 45.663 129.684 41.709 131.902 38.029 C 137.084 29.432 139.433 23.918 148.919 19.762 C 157.984 15.791 169.289 17.012 176.598 22.203 C 184.376 27.728 186.333 33.362 191.637 42.436 C 193.182 45.078 216.941 85.907 217.352 87.669 C 214.838 86.794 181.09 66.155 178.649 64.579 C 178.706 57.874 177.669 53.939 174.06 50.184 C 166.289 42.1 155.61 41.846 147.551 49.588 C 143.611 53.373 142.776 57.277 142.621 64.162 C 139.283 66.783 118.91 78.485 114.432 81.3 C 105.084 87.176 93.379 92.486 86.682 99.519 C 79.79 106.759 73.343 117.288 73.188 131.859 C 73.026 147.137 73.682 162.883 73.172 178.081 C 71.424 176.968 70.806 174.262 69.85 172.463 L 61.099 155.353 C 56.02 145.288 39.985 118.051 38.109 109.388 C 34.888 94.514 43.52 82.746 55.16 76.21 C 58.915 74.102 62.09 71.802 65.816 69.624 C 70.872 66.669 107.181 45.233 108.521 43.373 L 120.954 21.563 C 119.321 21.949 110.877 27.343 108.582 28.659 C 104.237 31.151 100.255 33.761 96.014 36.2 C 80.125 45.334 61.796 57.378 46.306 66.105 C 27.528 76.685 18.942 99.653 27.745 120.14 C 31.765 129.498 43.359 148.945 48.249 159.159 L 61.634 185.564 C 63.096 188.515 67.597 196.904 68.086 199.175 C 54.68 215.032 68.987 233.543 85.112 229.637 C 100.647 225.874 104.406 201.962 86.628 195.041 C 86.25 183.037 86.535 170.595 86.559 158.547 C 86.592 141.806 83.677 123.345 93.838 111.178 C 99.946 103.863 118.439 94.122 127.19 89.15 C 131.279 86.827 134.593 84.748 138.455 82.357 C 140.268 81.234 148.568 75.769 150.146 76.533 C 154.071 78.433 157.184 81.189 164.163 79.729 C 166.735 79.191 168.54 78.231 170.507 77.041 C 172.982 75.544 173.752 77.111 176.335 78.687 C 180.373 81.154 219.725 104.281 222.109 106.429 C 222.167 114.494 222.894 120.727 231.607 125.602 C 246.856 134.134 264.546 116.406 255.198 100.36 C 253.312 97.123 251.102 95.029 247.783 93.416 C 242.485 90.843 241.044 91.751 235.311 91.877 C 232.69 87.939 230.267 83.305 227.751 78.971 L 205.218 39.553 C 200.617 31.677 194.678 19.486 188.958 14.758 C 170.641 -0.384 144.742 0.703 129.825 17.09 C 124.423 23.024 104.478 59.221 99.074 68.829 L 87.96 88.501 C 86.769 90.542 85.05 93.172 84.318 95.158 L 84.319 95.16 Z" style="stroke-width: 0.09;"/>
  <path class="fil1" d="M 153.984 260.732 C 152.607 251.497 166.428 250.408 167.28 258.768 C 168.213 267.926 155.17 268.691 153.984 260.732 L 153.984 260.732 Z M 233.805 213.949 C 231.701 204.123 245.796 202.763 247.083 211.099 C 248.547 220.584 235.439 221.579 233.805 213.949 Z M 142.842 263.228 C 144.431 266.389 144.615 270.351 149.737 273.952 C 158.512 280.121 169.228 278.414 174.729 270.865 C 178.188 266.119 178.411 263.735 178.404 256.937 C 180.007 256.333 181.759 255.022 183.379 254.088 L 217.998 233.862 C 217.146 236.444 191.688 280.085 188.56 285.531 C 182.178 296.64 173.701 305.728 158.01 304.348 C 149.047 303.56 141.651 298.048 135.593 294.24 L 95.056 269.931 C 89.226 266.505 88.855 267.465 81.286 267.343 C 75.909 267.256 70.619 266.971 65.231 266.881 C 67.014 268.704 74.224 272.646 77.061 274.402 C 81.168 276.947 84.98 279.233 89.055 281.695 L 137.206 310.699 C 146.106 315.903 155.491 319.354 167.977 317.035 C 178.874 315.012 187.156 308.99 192.516 303.014 L 196.556 297.612 C 200.494 291.539 203.736 285.533 207.325 279.248 C 211.99 271.074 216.829 262.877 221.498 254.831 C 226.19 246.743 231.374 238.36 235.657 230.015 C 241.069 229.876 242.355 231.579 247.985 228.812 C 259.314 223.242 261.377 208.945 253.518 200.125 C 249.081 195.146 240.227 192.031 232.221 196.2 C 228.669 198.049 226.869 200.118 224.945 203.318 C 222.251 207.802 222.611 209.902 222.582 215.59 C 220.727 217.274 183.922 238.598 177.327 242.683 C 173.075 245.318 172.671 246.056 170.419 244.667 C 162.502 239.784 152.698 241.785 147.703 247.125 C 144.934 250.085 147.397 250.026 139.97 249.947 C 126.148 249.798 112.34 249.948 98.522 249.884 C 88.085 249.835 68.135 250.731 59.357 247.772 C 49.785 244.544 41.796 236.672 38.82 226.86 C 34.63 213.042 40.584 203.721 45.869 194.525 C 46.803 192.902 53.276 182.098 53.387 181.443 C 53.661 179.821 48.014 168.424 46.814 167.123 C 44.492 169.396 38.929 181.754 37.197 182.609 C 37.306 177.829 37.751 149.71 36.807 147.261 C 36.5 146.467 26.461 126.762 24.853 124.673 C 24.467 124.17 24.543 124.273 24.172 123.93 C 23.785 145.267 24.004 167.132 24.103 188.505 C 24.209 211.459 21.301 227.238 32.938 244.23 C 37.068 250.26 42.906 254.893 50.578 258.615 C 59.184 262.79 68.012 262.846 78.411 262.896 L 142.84 263.228 L 142.842 263.228 Z" style="stroke-width: 0.09;"/>
  <path class="fil1" d="M 264.347 177.956 L 271.608 188.602 C 279.689 201.916 287.186 213.069 281.5 229.097 C 278.606 237.255 271.265 244.047 263.184 247.271 C 254.14 250.879 239.948 249.734 229.54 250.268 C 228.421 251.368 222.387 261.447 221.762 263.453 L 237.166 263.325 L 225.464 270.306 C 209.759 279.894 216.18 273.159 206.58 289.189 C 204.811 292.144 201.372 298.794 199.67 300.81 C 201.512 300.33 236.615 278.902 239.391 277.268 C 246.161 273.279 252.614 269.395 259.508 265.364 C 266.381 261.346 273.198 257.568 279.37 253.218 C 290.045 245.693 300.479 227.903 295.534 207.762 C 293.538 199.633 289.13 192.005 285.401 185.883 C 282.967 181.888 274.579 168.8 272.057 167.395 C 272.591 175.206 273.056 176.091 264.347 177.956 L 264.347 177.956 Z" style="stroke-width: 0.09;"/>
</svg>