<?xml version="1.0" encoding="utf-8"?>
<svg width="1452.9" height="320" version="1.1" viewBox="0 0 1452.9 320" xmlns="http://www.w3.org/2000/svg">
  <g id="Layer_x0020_1" transform="matrix(1.731207, 0, 0, 1.731207, 28.111862, -2.157529)" style="">
    <g id="_2745907064256">
      <path class="fil0" d="M110.2 83.67c5.37,-1.14 9.77,2.89 10.5,7.28 0.93,5.6 -2.63,10 -7.18,10.72 -11.92,1.9 -15.31,-15.46 -3.32,-18zm18.93 4.63l4.03 1.67c0.29,0.13 0.31,0.15 0.44,0.24l1.23 1.03c0.04,0.03 0.09,0.06 0.13,0.09l5.04 3.51c0.54,0.42 0.31,0.37 1.04,0.3l0.49 -0.08c-0.26,0.85 -0.3,0.4 -0.56,0.77l2.33 1.99c-0.01,-0.01 -0.26,-0.2 -0.33,-0.27 0.26,-0.35 0.59,-0.17 1.41,-1l0.48 -0.24c-0.3,-0.55 -0.11,-0.1 -0.23,-0.83 1.02,-0.44 0.89,-0.22 0.93,-1.64 0.06,-0.04 0.14,-0.08 0.19,-0.11 0.05,-0.02 0.13,-0.07 0.18,-0.1 0.05,-0.02 0.13,-0.06 0.17,-0.08 1.31,-0.62 -0.3,0.21 0.42,-0.16l-1.52 0.02c-0.75,-0 0.18,-0.06 -0.38,0.16 -0.24,0.09 -0.9,0.38 -1.3,-0.17 -0.43,-1.15 0.44,-1.02 0.73,-1.12 -0.92,-0.96 -0.65,0.7 -0.69,-0.73 -0.03,-1.01 0.88,-0.8 1.03,-0.84 -1.22,-0.73 -0.87,-1.24 -2.86,-1.26l0.21 -0.31c0.31,-0.65 -0.92,-1.42 -1.47,-1.77l-2.41 -1.65c-1.53,-1.08 -1.26,-0.45 -1.36,-1.32 -1.62,-1.5 -8.74,-4.51 -11.63,-5.46 -9.77,-3.19 -18.61,-4.89 -26.14,3 -3.9,4.09 -3.6,8.57 -4.43,12.87 -2.56,13.33 -8.46,26.48 -21.48,29.94 -6.21,1.65 -10.08,0.52 -15.19,-0.51 -0.52,0.66 -1.31,2.53 -1.81,3.28 -0.78,1.17 -1.78,1.96 -2.43,2.93 2.2,1.97 12.95,2.56 16.67,2.14 5.53,-0.61 10.37,-2.69 14.09,-5.26 5.73,-3.94 9.68,-9.76 12.68,-16.09 1.19,-2.5 1.66,-4.59 2.59,-7.05 0.63,0.37 1.25,1 1.89,1.46 8.86,6.44 21.63,3.48 25.99,-5.71 2.03,-4.29 1.68,-7.2 0.96,-11.85l0.87 0.21zm0 0c1,0.76 3.52,1.97 4.75,2.74 3.31,2.08 7.84,5.85 10.29,8.8l1.98 2.15c3.33,-0.85 4.94,-0.01 4.22,-5.78 -0.54,-1.37 -5,-5.34 -6.39,-6.52 -1.71,-1.45 -5.3,-4.31 -7.49,-5.3 0.09,0.87 -0.17,0.24 1.36,1.32l2.41 1.65c0.55,0.35 1.78,1.12 1.47,1.77l-0.21 0.31c1.99,0.02 1.64,0.53 2.86,1.26 -0.15,0.04 -1.06,-0.17 -1.03,0.84 0.05,1.43 -0.23,-0.23 0.69,0.73 -0.29,0.1 -1.15,-0.03 -0.73,1.12 0.41,0.55 1.07,0.27 1.3,0.17 0.56,-0.21 -0.37,-0.16 0.38,-0.16l1.52 -0.02c-0.72,0.37 0.89,-0.46 -0.42,0.16 -0.05,0.02 -0.12,0.06 -0.17,0.08 -0.05,0.02 -0.13,0.07 -0.18,0.1 -0.05,0.03 -0.13,0.07 -0.19,0.11 -0.04,1.41 0.09,1.2 -0.93,1.64 0.12,0.73 -0.07,0.28 0.23,0.83l-0.48 0.24c-0.82,0.83 -1.15,0.65 -1.41,1 0.07,0.06 0.33,0.26 0.33,0.27l-2.33 -1.99c0.26,-0.37 0.31,0.07 0.56,-0.77l-0.49 0.08c-0.73,0.07 -0.5,0.13 -1.04,-0.3l-5.04 -3.51c-0.04,-0.02 -0.09,-0.06 -0.13,-0.09l-1.23 -1.03c-0.12,-0.09 -0.15,-0.11 -0.44,-0.24l-4.03 -1.67z" style=""/>
      <path class="fil0" d="M163.83 112.88c0.38,-2.31 0.14,-34.07 0.14,-37.24 -0.03,-13.69 1.92,-26.34 -11.87,-34.71l-17.54 -10.54c-3.96,-2.39 -7.64,-4.58 -11.62,-7.03 -1.67,-1.03 -10.76,-6.56 -11.82,-6.83l4.97 8.95c0.47,0.84 1.29,2.4 1.75,2.98 1.63,2.08 30.02,17.19 34.27,21.66 3.5,3.69 4.55,7.41 4.6,14.06 0.04,6.19 0.01,12.45 -0.02,18.65 -0.02,3.06 0.01,6.14 0.01,9.21 0.01,10.88 -1.08,5.74 3.91,14.73 1.04,1.88 2.14,4.43 3.22,6.11z" style=""/>
      <path class="fil0" d="M73.65 86.42l0.01 21.12c0.01,2.64 -0.22,1.95 4.41,1.95l3.69 -0.01 0.04 -28.52 -5.52 -0.07c-3.08,0.01 -2.63,-1.21 -2.62,5.53z" style=""/>
      <path class="fil0" d="M76.7 62.95c-3.5,0.52 -6.48,3.67 -5.84,7.95 0.52,3.45 3.8,6.43 8.04,5.77 3.57,-0.57 6.26,-3.72 5.66,-7.96 -0.48,-3.41 -3.79,-6.36 -7.85,-5.76z" style=""/>
      <path class="fil1" d="M49.05 121.91c-1.77,4.64 -8.49,2.13 -7,-2.57 0.54,-1.68 2.55,-3.04 4.89,-2.22 1.52,0.52 2.95,2.56 2.11,4.79zm80 -56.61c-0.84,-4.87 6.34,-6.22 7.31,-1.49 1.06,5.18 -6.56,5.86 -7.31,1.49zm-43.32 -26.06c-1.02,-5.12 6.48,-5.98 7.28,-1.49 0.88,4.95 -6.38,6 -7.28,1.49zm-38.11 17.42c1.02,-0.68 1.43,-1.29 2.51,-2.01 0.87,-0.58 1.82,-1.23 2.87,-1.85 2.09,-1.23 3.87,-2.4 6.03,-3.63 1.36,-0.78 1.73,-0.85 2.47,-2.26 2.47,-4.7 6.24,-10.76 8.7,-15.34 1.08,-2.01 2.25,-4.18 3.46,-6.19 2.83,-4.71 4.12,-7.72 9.31,-10 4.96,-2.17 11.15,-1.5 15.15,1.33 4.26,3.03 5.33,6.11 8.23,11.07 0.84,1.45 13.85,23.8 14.07,24.76 -1.37,-0.48 -19.85,-11.78 -21.19,-12.64 0.03,-3.67 -0.54,-5.82 -2.51,-7.88 -4.25,-4.43 -10.1,-4.57 -14.51,-0.33 -2.15,2.07 -2.61,4.21 -2.7,7.98 -1.83,1.43 -12.98,7.84 -15.43,9.38 -5.12,3.22 -11.52,6.12 -15.19,9.97 -3.78,3.96 -7.3,9.72 -7.39,17.7 -0.09,8.36 0.27,16.98 -0.01,25.3 -0.96,-0.61 -1.29,-2.09 -1.81,-3.07l-4.79 -9.36c-2.78,-5.51 -11.56,-20.42 -12.58,-25.16 -1.76,-8.14 2.96,-14.58 9.33,-18.16 2.06,-1.15 3.8,-2.41 5.83,-3.61 2.77,-1.61 22.64,-13.35 23.37,-14.37l6.81 -11.94c-0.89,0.21 -5.52,3.17 -6.77,3.89 -2.38,1.36 -4.56,2.79 -6.88,4.13 -8.7,5 -18.73,11.59 -27.21,16.37 -10.28,5.79 -14.98,18.36 -10.16,29.58 2.2,5.12 8.55,15.77 11.22,21.36l7.33 14.45c0.8,1.61 3.26,6.2 3.53,7.45 -7.34,8.68 0.5,18.81 9.32,16.67 8.5,-2.06 10.56,-15.15 0.83,-18.94 -0.2,-6.57 -0.05,-13.38 -0.04,-19.97 0.02,-9.17 -1.58,-19.27 3.98,-25.93 3.34,-4 13.46,-9.33 18.26,-12.06 2.24,-1.27 4.05,-2.41 6.17,-3.72 0.99,-0.61 5.54,-3.61 6.4,-3.19 2.15,1.04 3.85,2.55 7.67,1.75 1.41,-0.29 2.4,-0.82 3.47,-1.47 1.35,-0.82 1.78,0.04 3.19,0.9 2.21,1.35 23.75,14.01 25.06,15.19 0.03,4.41 0.43,7.83 5.2,10.49 8.35,4.67 18.03,-5.03 12.91,-13.81 -1.03,-1.77 -2.24,-2.92 -4.06,-3.8 -2.9,-1.41 -3.69,-0.91 -6.83,-0.84 -1.44,-2.15 -2.76,-4.69 -4.14,-7.06l-12.33 -21.57c-2.52,-4.31 -5.77,-10.98 -8.9,-13.57 -10.02,-8.29 -24.2,-7.7 -32.37,1.28 -2.96,3.25 -13.87,23.06 -16.83,28.32l-6.09 10.77c-0.65,1.12 -1.59,2.56 -1.99,3.65z" style=""/>
      <path class="fil1" d="M85.74 147.3c-0.76,-5.06 6.81,-5.65 7.28,-1.07 0.51,5.01 -6.63,5.43 -7.28,1.07zm43.69 -25.61c-1.15,-5.38 6.57,-6.12 7.27,-1.56 0.8,5.19 -6.37,5.74 -7.27,1.56zm-49.79 26.98c0.87,1.73 0.97,3.9 3.77,5.87 4.8,3.37 10.67,2.44 13.68,-1.69 1.89,-2.59 2.02,-3.9 2.01,-7.62 0.88,-0.33 1.83,-1.05 2.72,-1.56l18.95 -11.07c-0.47,1.41 -14.4,25.3 -16.11,28.28 -3.49,6.08 -8.13,11.06 -16.72,10.3 -4.91,-0.43 -8.95,-3.45 -12.27,-5.54l-22.19 -13.3c-3.19,-1.88 -3.39,-1.35 -7.54,-1.42 -2.94,-0.05 -5.84,-0.2 -8.79,-0.25 0.98,1 4.93,3.15 6.48,4.11 2.25,1.39 4.33,2.65 6.57,3.99l26.35 15.88c4.87,2.85 10.01,4.74 16.84,3.47 5.96,-1.11 10.5,-4.41 13.43,-7.68l2.21 -2.96c2.15,-3.32 3.93,-6.61 5.89,-10.05 2.55,-4.47 5.2,-8.96 7.76,-13.37 2.57,-4.43 5.41,-9.02 7.75,-13.58 2.96,-0.07 3.67,0.85 6.75,-0.66 6.2,-3.05 7.33,-10.88 3.03,-15.7 -2.43,-2.72 -7.28,-4.43 -11.66,-2.15 -1.94,1.02 -2.93,2.15 -3.98,3.9 -1.48,2.46 -1.28,3.6 -1.3,6.72 -1.02,0.93 -21.16,12.59 -24.77,14.83 -2.33,1.44 -2.55,1.85 -3.78,1.09 -4.33,-2.67 -9.7,-1.58 -12.44,1.35 -1.52,1.62 -0.17,1.59 -4.23,1.54 -7.57,-0.08 -15.12,0 -22.69,-0.04 -5.72,-0.02 -16.63,0.46 -21.44,-1.15 -5.24,-1.77 -9.61,-6.08 -11.24,-11.45 -2.29,-7.56 0.96,-12.67 3.86,-17.7 0.51,-0.89 4.06,-6.8 4.11,-7.16 0.15,-0.89 -2.94,-7.13 -3.59,-7.84 -1.27,1.24 -4.32,8.01 -5.27,8.48 0.06,-2.62 0.31,-18.01 -0.21,-19.35 -0.17,-0.43 -5.66,-11.22 -6.54,-12.36 -0.21,-0.28 -0.17,-0.22 -0.37,-0.41 -0.21,11.68 -0.09,23.65 -0.04,35.35 0.06,12.56 -1.53,21.2 4.84,30.5 2.26,3.3 5.45,5.84 9.65,7.87 4.71,2.29 9.54,2.32 15.24,2.35l35.27 0.18z" style=""/>
      <path class="fil1" d="M146.15 101.99l3.97 5.83c4.43,7.29 8.53,13.39 5.42,22.17 -1.59,4.46 -5.6,8.19 -10.03,9.95 -4.95,1.98 -12.72,1.35 -18.41,1.64 -0.61,0.6 -3.92,6.12 -4.26,7.22l8.43 -0.07 -6.41 3.82c-8.6,5.25 -5.08,1.56 -10.34,10.33 -0.97,1.62 -2.85,5.26 -3.78,6.36 1.01,-0.26 20.22,-11.99 21.74,-12.89 3.71,-2.19 7.24,-4.31 11.01,-6.52 3.76,-2.2 7.5,-4.27 10.87,-6.65 5.84,-4.12 11.55,-13.86 8.85,-24.88 -1.09,-4.45 -3.5,-8.63 -5.55,-11.98 -1.33,-2.19 -5.92,-9.35 -7.3,-10.12 0.29,4.28 0.55,4.76 -4.22,5.78z" style=""/>
    </g>
    <g id="_2745907063248">
      <path class="fil0" d="M758.13 72.26c28.22,-6.43 34.94,35.24 10.09,40.68 -28.38,6.2 -35.29,-34.93 -10.09,-40.68zm-31.14 24.14c1.21,10.38 6.48,17.44 12.53,22.46 21.08,17.52 62.76,6.11 59.78,-29.76 -1.58,-19.04 -18.7,-32.28 -39.9,-30.52 -20.6,1.71 -34.63,18.72 -32.41,37.82z" style=""/>
      <path class="fil0" d="M700.27 59.62c-0.56,3.42 -0.38,64.06 0.15,66.19l15 -0.03c0.5,-1.73 0.67,-62.16 0.13,-66.26l-15.28 0.1z" style=""/>
      <path class="fil1" d="M421.41 85.95c0.97,0.6 0.17,-0.01 1.07,0.89l28.24 34.45c0.97,1.13 1.48,1.85 2.44,3.16 1.11,1.52 1.14,1.42 3.53,1.43 3.35,0.01 7.29,0.14 10.59,-0.1 0.52,-1.41 0.78,-61.82 0.2,-66.31l-15.31 0.24 -0.02 39.33c-1.67,-0.89 -22.64,-27.27 -24.63,-29.66l-8.06 -9.89 -13.44 0.02c-0.49,5.23 -0.34,64.72 0.25,66.31l15.1 -0.13 0.06 -39.75z" style=""/>
      <path class="fil1" d="M344.17 86.02c1.23,0.66 8.15,9.5 10.2,11.85l19.26 23.67c3.13,3.96 2.7,4.32 6.22,4.31 3.04,-0.01 7.62,0.27 10.57,-0.14l-0.07 -65.98c-2.34,-0.61 -12.22,-0.29 -15.33,-0.19l-0.08 39.64c-0.86,-0.39 -14.7,-17.57 -16.34,-19.7 -4.28,-5.56 -13.28,-15.27 -16.35,-20.03l-13.35 0.12c-0.56,4.78 -0.13,11.63 -0.15,16.65 -0.02,5.58 -0.03,11.17 -0.04,16.74 -0,1.96 -0.2,30.1 0.28,32.05l15.15 0.7 0.02 -39.7z" style=""/>
      <path class="fil1" d="M260.83 95.98c-3.85,-28.63 36.44,-33.26 40.51,-6.88 1.97,12.73 -6.06,22.64 -16.76,24.06 -12.8,1.7 -22.28,-6.19 -23.76,-17.18zm-15.94 -0.43c0.91,10.98 6.28,18.12 12.21,23.18 20.63,17.61 62.76,6.33 60.33,-28.72 -1.35,-19.44 -18.11,-32.94 -39.31,-31.51 -19.16,1.29 -34.96,16.19 -33.23,37.05z" style=""/>
      <path class="fil1" d="M239.38 70.22c-16.47,-21.57 -64.46,-13.8 -63.52,23.19 0.63,25.2 24.84,38.26 47.62,32.07 5.35,-1.45 14.4,-7.26 15.96,-11.1 -1.26,-0.9 -3.99,-3.37 -5.14,-4.63 -1.59,-1.74 -3.1,-3.72 -5.11,-4.38 -2.82,2.83 -5.02,5.5 -9.78,7.02 -4.39,1.4 -9.91,1.38 -14.3,-0.09 -17.96,-5.98 -18,-34.43 0.61,-39.74 15.07,-4.3 21.6,5.99 24.04,7.12l9.61 -9.47z" style=""/>
      <path class="fil1" d="M595.83 79.47c1.85,-0.87 3.35,-2.47 5.15,-4.54 1.7,-1.96 3.18,-2.83 4.86,-4.72 -2.54,-4.36 -10.3,-9.03 -16.89,-10.69 -7.74,-1.94 -16.88,-1.38 -24.07,1.21 -30.17,10.85 -30.17,52.93 0.39,64.07 6.68,2.43 16.83,2.7 24.08,0.79 5.67,-1.5 14.11,-6.57 16.46,-10.74 -1.13,-1.85 -8.18,-8.74 -10.13,-9.54 -10.78,14.79 -37.38,8.83 -37.64,-12.35 -0.13,-10.11 6.2,-17.27 13.46,-20.01 4.43,-1.67 10.36,-1.67 14.85,-0.14 5.04,1.72 6.25,4.13 9.49,6.64z" style=""/>
      <path class="fil1" d="M482.76 125.56l0.02 -49.33c-0.04,-5.22 0.7,-11.81 -0.29,-16.74l51.08 0c-0.08,2.47 -0.13,4.37 -0.03,6.87 0.29,7.35 0.31,5.32 -1.69,5.43 -0.6,-1.38 -0.2,0.22 0.13,-0.92 0.65,-2.28 1.07,-7.83 0.42,-10.16l-48.63 0.07c-0.86,3.04 -0.09,12.04 -0.11,15.89l0.12 47.81c5,0.94 19.5,0.33 25.33,0.22 6.63,-0.13 18.94,0.73 24.81,-0.19l-0.14 -9.93c-5.88,-1.19 -32.28,0.53 -35.46,-0.53l-3.3 -0.89c1.23,-0.72 0.76,0.07 2.04,-0.86 0.17,-4.3 -1.04,-12.16 0.47,-14.96 0.45,-0.45 1.6,-0.2 2.88,-1.03 2.24,-1.46 10.19,-0.82 16.04,-0.73 -1,0.62 -2.39,0.5 -3.72,0.55 4.03,1.06 10.59,0.94 15.29,0.43 0.58,-2.95 0.55,-6.22 0,-9.16l-29.15 -0.86c3.43,-1.03 25.14,-0.58 30.41,-0.51l-0.39 11.93c1.06,-0.72 0.71,-1.05 0.7,-2.79 -0,-1 -0.05,-2.03 -0.05,-3.04 -0,-2.02 0.15,-4.13 -0.09,-6.28l-31.23 0.01 0.15 -13.87 35.33 -0.05 -0.14 -12.43 -50.94 0.12 0.17 65.94z" style=""/>
      <path class="fil1" d="M609.42 72.12l20.46 0.06c-0.1,5.88 -0.49,51.84 0.4,53.29 1.7,1.07 12.33,0.59 15.24,0.28l0.02 -53.63 20.92 -0.02c0.8,-2.07 0.51,-10.06 0.21,-12.63l-57.44 0.19 0.18 12.46z" style=""/>
      <path class="fil2" d="M482.76 125.56c2.06,0.58 48.44,0.66 52.36,0.13l-0.04 -12.56 -36.86 -0 0.09 -15.04 30.54 -0.14 0.39 -11.93c-5.27,-0.07 -26.98,-0.52 -30.41,0.51l29.15 0.86c0.55,2.94 0.58,6.21 0,9.16 -4.7,0.52 -11.26,0.64 -15.29,-0.43 1.33,-0.05 2.72,0.07 3.72,-0.55 -5.85,-0.09 -13.79,-0.73 -16.04,0.73 -1.28,0.83 -2.43,0.58 -2.88,1.03 -1.51,2.81 -0.3,10.67 -0.47,14.96 -1.28,0.93 -0.81,0.14 -2.04,0.86l3.3 0.89c3.18,1.06 29.58,-0.67 35.46,0.53l0.14 9.93c-5.86,0.92 -18.18,0.06 -24.81,0.19 -5.83,0.11 -20.33,0.72 -25.33,-0.22l-0.12 -47.81c0.02,-3.85 -0.74,-12.84 0.11,-15.89l48.63 -0.07c0.65,2.33 0.23,7.88 -0.42,10.16 -0.32,1.14 -0.73,-0.46 -0.13,0.92 2,-0.11 1.97,1.93 1.69,-5.43 -0.1,-2.49 -0.05,-4.39 0.03,-6.87l-51.08 0c0.99,4.93 0.25,11.52 0.29,16.74l-0.02 49.33z" style=""/>
    </g>
  </g>
</svg>