<?xml version="1.0" encoding="utf-8"?>
<svg width="320" height="320" version="1.1" viewBox="0 0 320 320" xmlns="http://www.w3.org/2000/svg">
  <path class="fil0" d="M 198.944 145.814 C 208.82 143.721 216.896 151.125 218.236 159.191 C 219.947 169.494 213.392 177.571 205.042 178.9 C 183.132 182.388 176.889 150.487 198.944 145.814 L 198.944 145.814 Z M 233.735 154.321 L 241.143 157.399 C 241.678 157.635 241.72 157.681 241.946 157.835 L 244.203 159.726 C 244.275 159.775 244.379 159.841 244.453 159.888 L 253.709 166.344 C 254.701 167.118 254.285 167.024 255.622 166.884 L 256.531 166.743 C 256.06 168.299 255.976 167.468 255.492 168.161 L 259.783 171.817 C 259.772 171.808 259.306 171.447 259.175 171.326 C 259.649 170.687 260.25 171.013 261.758 169.49 L 262.639 169.055 C 262.081 168.046 262.437 168.865 262.209 167.522 C 264.087 166.716 263.849 167.109 263.909 164.513 C 264.022 164.437 264.173 164.358 264.264 164.311 C 264.35 164.268 264.504 164.173 264.602 164.125 C 264.69 164.082 264.833 164.015 264.919 163.976 C 267.336 162.838 264.358 164.367 265.69 163.688 L 262.899 163.717 C 261.522 163.71 263.227 163.612 262.2 164.008 C 261.766 164.176 260.55 164.702 259.806 163.688 C 259.026 161.563 260.62 161.814 261.15 161.623 C 259.457 159.866 259.961 162.917 259.874 160.286 C 259.813 158.421 261.489 158.805 261.772 158.733 C 259.526 157.392 260.179 156.463 256.516 156.419 L 256.896 155.847 C 257.463 154.659 255.206 153.233 254.197 152.601 L 249.774 149.575 C 246.958 147.59 247.454 148.752 247.28 147.147 C 244.302 144.398 231.212 138.859 225.897 137.12 C 207.943 131.247 191.685 128.119 177.853 142.622 C 170.676 150.147 171.23 158.391 169.714 166.291 C 165.014 190.79 154.171 214.975 130.221 221.34 C 118.797 224.376 111.691 222.301 102.292 220.405 C 101.339 221.613 99.879 225.059 98.966 226.437 C 97.544 228.584 95.699 230.039 94.51 231.823 C 98.565 235.436 118.315 236.514 125.155 235.755 C 135.326 234.626 144.211 230.806 151.059 226.091 C 161.597 218.835 168.847 208.151 174.366 196.504 C 176.547 191.902 177.42 188.065 179.127 183.542 C 180.273 184.213 181.43 185.376 182.591 186.22 C 198.879 198.063 222.361 192.614 230.367 175.721 C 234.103 167.836 233.451 162.481 232.136 153.93 L 233.737 154.323 L 233.735 154.321 Z M 233.735 154.321 C 235.566 155.708 240.207 157.943 242.475 159.365 C 248.565 163.182 256.887 170.129 261.392 175.541 L 265.024 179.5 C 271.144 177.939 274.106 179.483 272.783 168.873 C 271.802 166.36 263.59 159.054 261.043 156.895 C 257.905 154.237 251.304 148.98 247.28 147.147 C 247.454 148.751 246.958 147.59 249.774 149.575 L 254.197 152.601 C 255.206 153.233 257.463 154.659 256.896 155.847 L 256.516 156.419 C 260.179 156.464 259.525 157.392 261.772 158.733 C 261.489 158.805 259.812 158.421 259.874 160.286 C 259.962 162.917 259.457 159.866 261.15 161.623 C 260.62 161.814 259.027 161.563 259.806 163.688 C 260.551 164.702 261.766 164.175 262.2 164.008 C 263.227 163.612 261.522 163.711 262.899 163.717 L 265.69 163.688 C 264.358 164.367 267.336 162.838 264.919 163.976 C 264.833 164.016 264.691 164.082 264.602 164.125 C 264.504 164.173 264.35 164.268 264.264 164.311 C 264.174 164.358 264.022 164.437 263.909 164.513 C 263.849 167.11 264.087 166.717 262.209 167.522 C 262.436 168.866 262.081 168.046 262.639 169.055 L 261.758 169.49 C 260.25 171.013 259.649 170.687 259.175 171.326 C 259.306 171.447 259.772 171.808 259.783 171.817 L 255.492 168.161 C 255.976 167.468 256.06 168.299 256.531 166.743 L 255.622 166.884 C 254.285 167.024 254.701 167.118 253.709 166.344 L 244.453 159.888 C 244.379 159.841 244.275 159.776 244.203 159.726 L 241.946 157.835 C 241.721 157.68 241.678 157.635 241.143 157.399 L 233.735 154.321 L 233.735 154.321 Z" style="stroke-width: 0.09;"/>
  <path class="fil0" d="M 131.75 150.886 L 131.773 189.702 C 131.79 194.563 131.356 193.295 139.869 193.296 L 146.643 193.279 L 146.713 140.855 L 136.566 140.72 C 130.909 140.735 131.732 138.492 131.75 150.886 L 131.75 150.886 Z" style="stroke-width: 0.09;"/>
  <path class="fil0" d="M 137.344 107.742 C 130.914 108.694 125.422 114.492 126.606 122.357 C 127.562 128.711 133.595 134.187 141.371 132.96 C 147.938 131.924 152.876 126.132 151.776 118.335 C 150.892 112.07 144.801 106.637 137.344 107.742 Z" style="stroke-width: 0.09;"/>
  <g stroke-width="28"/>
</svg>